<?xml version="1.0" standalone="no"?>
<!DOCTYPE svg PUBLIC "-//W3C//DTD SVG 1.1//EN" "http://www.w3.org/Graphics/SVG/1.1/DTD/svg11.dtd">
<svg version="1.1" xmlns="http://www.w3.org/2000/svg" viewBox="0 0 243.23613403097488 243.23613403097488" width="243.23613403097488" height="243.23613403097488"><!-- svg-source:excalidraw --><metadata></metadata><defs><style class="style-fonts">
      </style></defs><g stroke-linecap="round" transform="translate(10 10) rotate(0 111.61806701548744 111.61806701548744)"><path d="M32 0 C92.27 -1.21, 154 2.82, 191.24 0 C212.66 2.38, 224.38 11.54, 223.24 32 C225.66 65.32, 223.31 106.06, 223.24 191.24 C224.48 212.97, 212.61 223.68, 191.24 223.24 C154.31 224.75, 122.03 224.11, 32 223.24 C10.46 223.89, 0.21 212.19, 0 191.24 C-3.3 154.21, 2.36 118.14, 0 32 C-0.2 9.67, 8.26 0.38, 32 0" stroke="none" stroke-width="0" fill="#bb86fc"></path><path d="M32 0 C83.66 -1.38, 139.93 -1, 191.24 0 M32 0 C76.96 0.86, 123.51 1.55, 191.24 0 M191.24 0 C211.67 0.35, 221.51 9.71, 223.24 32 M191.24 0 C213.62 -0.78, 223.7 12.18, 223.24 32 M223.24 32 C222.59 85.59, 224.17 135.82, 223.24 191.24 M223.24 32 C224.16 67.85, 222.93 102.9, 223.24 191.24 M223.24 191.24 C224.33 211.13, 214.14 221.52, 191.24 223.24 M223.24 191.24 C221.63 213.5, 211.96 224.53, 191.24 223.24 M191.24 223.24 C137.83 224.65, 83.41 223.91, 32 223.24 M191.24 223.24 C127.63 223.7, 63.97 223.17, 32 223.24 M32 223.24 C11.98 224.29, 0.65 211.96, 0 191.24 M32 223.24 C8.6 221.8, 1.65 212.25, 0 191.24 M0 191.24 C-1.79 140.2, -1.75 90.94, 0 32 M0 191.24 C1.84 155.02, 0.02 117.52, 0 32 M0 32 C0.99 12.4, 10.72 1.51, 32 0 M0 32 C-1.22 12, 12.6 -0.57, 32 0" stroke="#f7f7f7" stroke-width="4" fill="none"></path></g><g stroke-linecap="round"><g transform="translate(10.42930025775189 61.21101798549043) rotate(0 110.54481637110771 0)"><path d="M0.83 -0.63 C37.89 -0.69, 184.78 -0.85, 221.69 -0.58 M-0.2 1.65 C36.82 1.76, 184.01 1.07, 221.06 0.65" stroke="#f7f7f7" stroke-width="4" fill="none"></path></g></g><mask></mask><g transform="translate(36.07628253863993 30.189693746393573) rotate(0 85.1910100766766 7.8091759236953635)" stroke="none"><path fill="#f7f7f7" d="M 0,-10.41 Q 0,-10.41 2.99,-10.58 5.98,-10.75 11.02,-11.13 16.06,-11.50 21.48,-11.87 26.90,-12.23 31.39,-12.73 35.88,-13.24 40.27,-13.45 44.66,-13.67 50.35,-13.84 56.05,-14.01 61.44,-14.12 66.84,-14.23 72.81,-14.31 78.78,-14.39 83.83,-14.47 88.89,-14.55 95.14,-14.59 101.39,-14.63 107.60,-14.66 113.82,-14.69 118.23,-14.69 122.63,-14.69 127.53,-14.77 132.43,-14.85 137.51,-14.95 142.59,-15.06 147.02,-15.14 151.44,-15.22 156.56,-14.59 161.68,-13.97 166.73,-12.05 171.77,-10.13 177.82,-5.85 183.87,-1.58 187.23,1.35 190.60,4.28 188.73,16.38 186.87,28.47 182.27,29.71 177.66,30.95 173.11,30.99 168.56,31.04 163.70,31.29 158.83,31.54 153.42,31.54 148.00,31.53 143.36,31.54 138.71,31.55 133.23,31.33 127.75,31.11 122.43,30.91 117.11,30.71 112.67,30.66 108.23,30.61 103.44,30.39 98.66,30.16 94.06,29.93 89.46,29.71 84.49,29.48 79.52,29.25 74.97,29.25 70.42,29.24 64.96,29.23 59.50,29.22 54.24,29.20 48.98,29.17 44.24,29.14 39.50,29.10 34.11,29.08 28.71,29.07 23.48,29.05 18.25,29.04 13.73,29.06 9.22,29.08 4.45,29.10 -0.31,29.13 -5.36,29.16 -10.41,29.19 -12.88,28.78 -15.35,28.38 -17.56,27.21 -19.77,26.03 -21.49,24.22 -23.21,22.40 -24.26,20.13 -25.31,17.86 -25.58,15.37 -25.85,12.88 -25.31,10.44 -24.78,7.99 -23.49,5.85 -22.20,3.71 -20.29,2.09 -18.38,0.47 -16.06,-0.45 -13.73,-1.38 -11.23,-1.51 -8.73,-1.65 -6.32,-0.98 -3.91,-0.31 -1.84,1.09 0.22,2.49 1.74,4.48 3.25,6.48 4.05,8.85 4.85,11.22 4.85,13.72 4.85,16.22 4.05,18.60 3.25,20.97 1.73,22.96 0.22,24.95 -1.84,26.36 -3.92,27.76 -6.33,28.43 -8.74,29.10 -11.24,28.96 -13.74,28.83 -16.06,27.90 -18.38,26.97 -20.29,25.35 -22.20,23.73 -23.49,21.59 -24.78,19.44 -25.31,17.00 -25.85,14.55 -25.58,12.07 -25.31,9.58 -24.26,7.31 -23.21,5.04 -21.49,3.22 -19.76,1.40 -17.55,0.23 -15.34,-0.93 -12.87,-1.33 -10.40,-1.74 -10.40,-1.74 -10.41,-1.74 -6.09,-1.71 -1.76,-1.69 2.58,-1.67 6.93,-1.64 11.70,-1.62 16.46,-1.60 20.86,-1.60 25.26,-1.59 29.98,-1.62 34.70,-1.65 39.87,-1.66 45.03,-1.68 49.49,-1.71 53.94,-1.74 59.24,-1.76 64.54,-1.79 69.23,-1.79 73.93,-1.78 78.80,-1.54 83.68,-1.29 87.99,-1.23 92.30,-1.17 97.94,-0.92 103.59,-0.68 108.80,-0.49 114.01,-0.30 118.80,-0.06 123.59,0.17 128.88,0.39 134.17,0.61 138.91,0.63 143.65,0.64 149.02,0.64 154.39,0.63 159.43,0.62 164.46,0.61 169.44,0.86 174.43,1.12 171.80,12.13 169.17,23.15 164.69,20.50 160.21,17.84 155.83,16.06 151.44,14.27 147.02,14.19 142.59,14.11 137.51,14.01 132.43,13.90 127.53,13.82 122.63,13.74 118.23,13.74 113.82,13.75 107.60,13.71 101.39,13.68 95.14,13.64 88.89,13.60 83.83,13.52 78.78,13.44 72.81,13.36 66.84,13.28 61.44,13.17 56.05,13.06 50.36,12.89 44.66,12.72 40.41,12.52 36.17,12.32 31.53,12.27 26.90,12.23 21.48,11.87 16.06,11.50 11.02,11.13 5.98,10.75 2.99,10.58 0,10.41 -1.24,10.25 -2.49,10.10 -3.66,9.66 -4.83,9.21 -5.87,8.50 -6.90,7.79 -7.73,6.85 -8.56,5.91 -9.15,4.80 -9.73,3.69 -10.03,2.47 -10.33,1.25 -10.33,-0.00 -10.33,-1.25 -10.03,-2.47 -9.73,-3.69 -9.15,-4.80 -8.56,-5.91 -7.73,-6.85 -6.90,-7.79 -5.86,-8.50 -4.83,-9.21 -3.66,-9.66 -2.49,-10.10 -1.24,-10.25 0.00,-10.41 0.00,-10.41 L 0,-10.41 Z"></path></g><g transform="translate(28.146590161346353 51.56528438996344) rotate(0 19.3353734477881 -13.156027294371285)" stroke="none"><path fill="#f7f7f7" d="M 1.65,9.26 Q 1.65,9.26 0.08,9.73 -1.49,10.19 -5.35,11.07 -9.21,11.95 -10.48,11.79 -11.74,11.64 -12.93,11.19 -14.12,10.74 -15.17,10.02 -16.21,9.29 -17.06,8.34 -17.90,7.39 -18.49,6.26 -19.09,5.14 -19.39,3.90 -19.70,2.67 -19.70,1.39 -19.70,0.12 -19.39,-1.11 -19.09,-2.34 -18.50,-3.47 -17.91,-4.59 -17.06,-5.55 -16.22,-6.50 -15.17,-7.22 -14.12,-7.95 -12.93,-8.40 -11.74,-8.85 -10.48,-9.00 -9.22,-9.16 -13.70,-6.71 -18.18,-4.27 -19.03,-9.16 -19.88,-14.06 -18.25,-18.40 -16.61,-22.75 -13.99,-26.47 -11.36,-30.19 -7.05,-32.82 -2.73,-35.44 1.59,-36.82 5.91,-38.20 10.70,-39.25 15.49,-40.30 20.56,-40.90 25.62,-41.50 30.12,-41.74 34.62,-41.97 39.16,-42.08 43.70,-42.20 44.70,-42.22 45.70,-42.24 48.08,-42.23 50.46,-42.22 52.72,-41.45 54.97,-40.68 56.86,-39.24 58.75,-37.79 60.08,-35.81 61.41,-33.84 62.04,-31.54 62.67,-29.24 62.54,-26.87 62.40,-24.49 61.51,-22.28 60.62,-20.07 59.07,-18.26 57.52,-16.45 55.48,-15.23 53.43,-14.01 51.11,-13.51 48.78,-13.00 46.41,-13.27 44.05,-13.53 41.89,-14.54 39.73,-15.55 38.01,-17.19 36.29,-18.84 35.18,-20.94 34.07,-23.05 33.69,-25.40 33.32,-27.75 33.71,-30.10 34.10,-32.45 35.23,-34.55 36.35,-36.65 38.08,-38.28 39.82,-39.91 41.98,-40.91 44.15,-41.90 46.52,-42.15 48.88,-42.40 51.21,-41.88 53.53,-41.36 55.57,-40.12 57.60,-38.89 59.14,-37.07 60.67,-35.25 61.55,-33.03 62.42,-30.81 62.54,-28.44 62.66,-26.06 62.02,-23.77 61.37,-21.47 60.03,-19.51 58.68,-17.54 56.78,-16.11 54.88,-14.67 52.62,-13.92 50.36,-13.17 50.36,-13.17 50.37,-13.17 45.96,-13.01 41.55,-12.86 37.15,-12.97 32.74,-13.08 28.07,-13.03 23.41,-12.98 19.14,-12.66 14.87,-12.35 10.18,-12.43 5.50,-12.52 4.19,-7.78 2.87,-3.04 1.57,1.55 0.26,6.15 -4.47,9.05 -9.21,11.95 -10.48,11.79 -11.74,11.64 -12.93,11.19 -14.12,10.74 -15.17,10.02 -16.21,9.29 -17.06,8.34 -17.90,7.39 -18.49,6.26 -19.09,5.14 -19.39,3.90 -19.70,2.67 -19.70,1.39 -19.70,0.12 -19.39,-1.10 -19.09,-2.34 -18.50,-3.47 -17.91,-4.59 -17.06,-5.55 -16.22,-6.50 -15.17,-7.22 -14.13,-7.95 -12.94,-8.40 -11.75,-8.85 -10.48,-9.00 -9.22,-9.16 -7.07,-9.10 -4.92,-9.04 -3.29,-9.15 -1.65,-9.26 -0.52,-9.32 0.61,-9.39 1.72,-9.18 2.84,-8.97 3.87,-8.50 4.90,-8.03 5.79,-7.32 6.68,-6.62 7.38,-5.72 8.07,-4.83 8.53,-3.79 8.99,-2.75 9.19,-1.64 9.39,-0.52 9.32,0.60 9.25,1.73 8.90,2.82 8.56,3.90 7.97,4.87 7.38,5.83 6.57,6.63 5.77,7.43 4.79,8.01 3.82,8.60 2.73,8.93 1.65,9.26 1.65,9.26 L 1.65,9.26 Z"></path></g><g transform="translate(49.07663358420973 23.060558585492316) rotate(0 -10.764022331758326 0.1993337468844132)" stroke="none"><path fill="#f7f7f7" d="M -4.17,8.35 Q -4.17,8.35 -5.39,7.91 -6.60,7.48 -8.10,5.58 -9.59,3.69 -9.92,5.59 -10.25,7.49 -11.16,9.19 -12.08,10.89 -13.50,12.20 -14.91,13.52 -16.67,14.31 -18.43,15.11 -20.35,15.30 -22.27,15.49 -24.15,15.06 -26.04,14.63 -27.68,13.62 -29.33,12.61 -30.57,11.13 -31.80,9.65 -32.50,7.85 -33.20,6.05 -33.29,4.12 -33.38,2.19 -32.84,0.33 -32.31,-1.51 -31.21,-3.10 -30.12,-4.69 -28.57,-5.84 -27.02,-7.00 -25.19,-7.60 -23.35,-8.20 -21.42,-8.18 -19.49,-8.17 -17.67,-7.54 -15.84,-6.90 -14.31,-5.72 -12.79,-4.54 -11.72,-2.93 -10.65,-1.32 -10.15,0.53 -9.65,2.40 -9.77,4.32 -9.89,6.25 -10.62,8.04 -11.35,9.83 -12.61,11.29 -13.88,12.75 -15.54,13.73 -17.20,14.71 -19.09,15.11 -20.98,15.51 -22.90,15.28 -24.82,15.05 -26.56,14.23 -28.31,13.40 -29.70,12.06 -31.09,10.72 -31.98,9.01 -32.87,7.29 -33.16,5.39 -33.46,3.48 -33.46,3.48 -33.46,3.48 -28.84,-3.79 -24.22,-11.08 -19.69,-12.25 -15.16,-13.42 -10.67,-13.33 -6.18,-13.24 -2.07,-11.51 2.02,-9.77 3.09,-9.06 4.17,-8.35 5.11,-7.73 6.05,-7.10 6.81,-6.28 7.57,-5.45 8.12,-4.46 8.66,-3.48 8.95,-2.39 9.24,-1.30 9.26,-0.18 9.29,0.94 9.04,2.04 8.79,3.13 8.29,4.14 7.78,5.15 7.05,6.00 6.32,6.86 5.41,7.52 4.50,8.18 3.45,8.60 2.41,9.02 1.29,9.17 0.18,9.33 -0.93,9.22 -2.05,9.10 -3.11,8.73 -4.17,8.35 -4.17,8.35 L -4.17,8.35 Z"></path></g><g transform="translate(98.11273531777556 23.259892332376722) rotate(0 52.82344292436949 10.3653548379895)" stroke="none"><path fill="#f7f7f7" d="M -0.20,9.64 Q -0.20,9.64 -2.90,9.80 -5.60,9.95 -10.15,9.89 -14.70,9.83 -18.97,6.99 -23.25,4.15 -23.44,-0.92 -23.63,-6.00 -18.94,-9.62 -14.25,-13.23 -9.49,-13.95 -4.74,-14.67 -0.32,-15.00 4.10,-15.33 8.37,-15.74 12.63,-16.14 17.18,-16.40 21.72,-16.65 26.32,-16.84 30.92,-17.03 35.69,-17.07 40.47,-17.11 45.89,-17.19 51.31,-17.28 56.08,-17.19 60.84,-17.10 65.17,-17.07 69.50,-17.05 74.74,-16.81 79.97,-16.58 85.19,-16.33 90.42,-16.08 96.18,-15.37 101.94,-14.67 105.79,-12.80 109.64,-10.93 113.77,-9.69 117.90,-8.46 121.46,-5.29 125.03,-2.13 127.48,1.90 129.94,5.94 131.63,10.32 133.32,14.69 130.91,12.95 128.50,11.21 130.29,12.99 132.08,14.78 133.20,17.04 134.33,19.31 134.68,21.81 135.02,24.32 134.55,26.80 134.07,29.29 132.83,31.49 131.59,33.69 129.71,35.38 127.83,37.07 125.51,38.08 123.19,39.08 120.67,39.29 118.15,39.50 115.69,38.89 113.24,38.28 111.11,36.92 108.97,35.56 107.39,33.59 105.80,31.62 104.92,29.25 104.05,26.88 103.98,24.35 103.91,21.82 104.65,19.41 105.38,16.99 106.86,14.93 108.33,12.88 110.38,11.40 112.43,9.92 114.85,9.18 117.27,8.43 119.80,8.50 122.32,8.56 124.70,9.43 127.07,10.30 129.05,11.88 131.02,13.46 132.38,15.59 133.75,17.72 134.36,20.18 134.97,22.63 134.77,25.15 134.57,27.67 133.57,29.99 132.58,32.32 130.89,34.20 129.20,36.09 127.00,37.33 124.80,38.58 122.32,39.06 119.84,39.54 117.33,39.20 114.82,38.86 112.56,37.74 110.29,36.62 110.29,36.62 110.29,36.62 107.55,31.32 104.81,26.02 102.82,21.60 100.83,17.19 95.97,15.87 91.11,14.55 86.86,14.08 82.60,13.62 77.86,13.26 73.12,12.91 68.28,12.62 63.45,12.33 58.66,12.03 53.88,11.73 49.41,11.52 44.93,11.31 39.94,11.05 34.95,10.80 30.36,10.62 25.77,10.45 21.51,10.27 17.24,10.08 12.82,10.05 8.40,10.02 3.69,9.70 -1.02,9.38 -6.13,9.17 -11.25,8.96 -7.44,5.71 -3.62,2.46 -4.39,-3.85 -5.17,-10.18 -2.48,-9.91 0.20,-9.64 1.35,-9.48 2.50,-9.31 3.58,-8.88 4.66,-8.44 5.60,-7.76 6.54,-7.08 7.30,-6.19 8.05,-5.30 8.57,-4.26 9.09,-3.22 9.34,-2.09 9.59,-0.95 9.57,0.20 9.55,1.36 9.24,2.48 8.94,3.61 8.38,4.63 7.82,5.64 7.03,6.50 6.24,7.35 5.27,7.99 4.29,8.63 3.20,9.02 2.10,9.41 0.95,9.52 -0.20,9.64 -0.20,9.64 L -0.20,9.64 Z"></path></g><g transform="translate(225.08833208314695 48.37594443981283) rotate(0 0.6976681140954497 1.7940037219597258)" stroke="none"><path d="M-0.08 1.12 C0.38 1.2, 1.98 0.83, 2.22 1.17 C2.45 1.5, 1.36 2.54, 1.33 3.14" stroke="none" stroke-width="0" fill="#f7f7f7" fill-rule="evenodd"></path><path fill="#f7f7f7" d="M 8.30,-3.87 Q 8.30,-3.87 9.34,-0.25 10.38,3.36 10.17,4.84 9.97,6.31 9.30,7.64 8.64,8.97 7.58,10.02 6.53,11.06 5.20,11.72 3.86,12.38 2.39,12.57 0.91,12.77 -0.54,12.49 -2.00,12.20 -3.29,11.46 -4.58,10.73 -5.57,9.62 -6.56,8.51 -7.14,7.14 -7.73,5.77 -7.84,4.29 -7.96,2.81 -7.59,1.37 -7.23,-0.07 -6.43,-1.32 -5.62,-2.57 -4.46,-3.49 -3.30,-4.42 -1.90,-4.93 -0.50,-5.44 0.97,-5.47 2.46,-5.51 3.88,-5.07 5.30,-4.63 6.51,-3.76 7.71,-2.88 8.58,-1.67 9.44,-0.46 9.87,0.95 10.30,2.37 10.26,3.86 10.21,5.34 9.69,6.74 9.18,8.13 8.24,9.29 7.31,10.45 6.05,11.24 4.79,12.04 3.35,12.39 1.91,12.75 0.42,12.62 -1.05,12.50 -2.41,11.90 -3.78,11.31 -4.88,10.31 -5.98,9.32 -6.71,8.02 -7.44,6.72 -7.71,5.26 -7.99,3.80 -7.99,3.80 -7.99,3.80 -8.14,3.84 -8.30,3.87 -8.64,2.82 -8.99,1.77 -9.07,0.67 -9.15,-0.42 -8.97,-1.51 -8.78,-2.60 -8.34,-3.62 -7.90,-4.63 -7.23,-5.51 -6.56,-6.39 -5.70,-7.08 -4.84,-7.77 -3.84,-8.24 -2.84,-8.71 -1.76,-8.92 -0.67,-9.13 0.42,-9.08 1.52,-9.03 2.58,-8.72 3.64,-8.40 4.60,-7.84 5.55,-7.29 6.34,-6.52 7.13,-5.74 7.72,-4.81 8.30,-3.87 8.30,-3.87 L 8.30,-3.87 Z"></path></g><g transform="translate(225.08833208314695 42.79459952704926) rotate(0 -10.56468858487392 -9.667686723894064)" stroke="none"><path fill="#f7f7f7" d="M -9.37,0.44 Q -9.37,0.44 -9.57,-0.75 -9.78,-1.94 -13.32,-4.58 -16.87,-7.22 -18.93,-6.91 -20.98,-6.60 -22.50,-6.79 -24.03,-6.98 -25.46,-7.53 -26.89,-8.08 -28.15,-8.95 -29.41,-9.83 -30.43,-10.98 -31.44,-12.13 -32.15,-13.49 -32.86,-14.85 -33.22,-16.34 -33.59,-17.83 -33.58,-19.36 -33.58,-20.90 -33.21,-22.38 -32.84,-23.87 -32.12,-25.23 -31.41,-26.59 -30.39,-27.73 -29.37,-28.88 -28.10,-29.74 -26.84,-30.61 -25.40,-31.15 -23.97,-31.69 -22.44,-31.87 -20.92,-32.06 -16.64,-31.52 -12.36,-30.98 -7.46,-27.83 -2.57,-24.67 0.21,-20.22 3.00,-15.77 2.21,-17.88 1.43,-19.99 2.13,-18.51 2.84,-17.04 3.17,-15.44 3.50,-13.84 3.44,-12.20 3.38,-10.57 2.93,-9.00 2.48,-7.43 1.67,-6.01 0.86,-4.59 -0.26,-3.41 -1.39,-2.22 -2.77,-1.35 -4.15,-0.47 -5.70,0.05 -7.25,0.57 -8.87,0.71 -10.50,0.84 -12.12,0.59 -13.73,0.33 -15.24,-0.30 -16.75,-0.93 -18.06,-1.91 -19.37,-2.89 -20.40,-4.15 -21.44,-5.41 -21.25,-12.67 -21.05,-19.93 -21.44,-13.34 -21.83,-6.75 -22.56,-17.75 -23.30,-28.74 -13.56,-28.32 -3.82,-27.90 -2.22,-26.30 -0.62,-24.71 0.38,-22.68 1.38,-20.66 1.69,-18.42 2.00,-16.18 1.58,-13.96 1.16,-11.74 0.05,-9.77 -1.05,-7.80 -2.73,-6.29 -4.41,-4.78 -6.49,-3.88 -8.56,-2.99 -10.82,-2.80 -13.07,-2.61 -15.26,-3.16 -17.46,-3.70 -19.36,-4.91 -21.27,-6.13 -22.69,-7.89 -24.11,-9.65 -24.89,-11.77 -25.67,-13.89 -25.74,-16.15 -25.80,-18.41 -25.14,-20.57 -24.48,-22.73 -23.16,-24.57 -21.85,-26.40 -20.01,-27.73 -18.18,-29.05 -16.02,-29.71 -13.86,-30.38 -11.60,-30.32 -9.34,-30.26 -7.22,-29.49 -5.10,-28.71 -3.33,-27.30 -1.57,-25.88 -0.35,-23.98 0.86,-22.08 1.41,-19.88 1.96,-17.69 1.78,-15.44 1.60,-13.19 0.71,-11.11 -0.17,-9.03 -1.68,-7.35 -3.19,-5.66 -5.15,-4.55 -7.12,-3.43 -9.34,-3.00 -11.56,-2.58 -13.80,-2.88 -16.04,-3.18 -18.06,-4.18 -20.09,-5.18 -20.09,-5.18 -20.09,-5.18 -13.88,-5.47 -7.66,-5.75 -7.32,-16.96 -6.97,-28.18 -3.34,-25.30 0.28,-22.43 1.82,-18.36 3.37,-14.29 2.23,-9.91 1.08,-5.53 1.25,-12.76 1.43,-19.99 2.13,-18.52 2.84,-17.04 3.17,-15.44 3.50,-13.84 3.44,-12.21 3.38,-10.57 2.93,-9.00 2.48,-7.43 1.67,-6.01 0.86,-4.59 -0.26,-3.41 -1.39,-2.23 -2.77,-1.35 -4.15,-0.47 -5.69,0.05 -7.24,0.57 -8.87,0.71 -10.50,0.84 -12.12,0.59 -13.73,0.33 -15.24,-0.30 -16.74,-0.93 -18.05,-1.91 -19.36,-2.89 -20.40,-4.15 -21.44,-5.41 -21.21,-6.01 -20.98,-6.60 -22.50,-6.79 -24.03,-6.98 -25.46,-7.53 -26.89,-8.08 -28.15,-8.95 -29.41,-9.82 -30.43,-10.98 -31.44,-12.13 -32.15,-13.49 -32.86,-14.85 -33.22,-16.34 -33.59,-17.83 -33.58,-19.36 -33.58,-20.89 -33.21,-22.38 -32.84,-23.87 -32.12,-25.23 -31.41,-26.58 -30.39,-27.73 -29.37,-28.88 -28.10,-29.74 -26.84,-30.61 -25.40,-31.15 -23.97,-31.69 -22.44,-31.87 -20.92,-32.06 -17.24,-31.27 -13.55,-30.49 -8.41,-28.40 -3.26,-26.31 0.20,-23.47 3.67,-20.62 5.40,-16.63 7.14,-12.65 8.34,-7.75 9.55,-2.86 9.46,-1.65 9.37,-0.44 9.28,0.68 9.20,1.80 8.85,2.88 8.50,3.96 7.90,4.92 7.31,5.88 6.50,6.66 5.69,7.45 4.71,8.03 3.74,8.60 2.65,8.92 1.57,9.24 0.44,9.30 -0.68,9.35 -1.79,9.13 -2.90,8.92 -3.93,8.44 -4.95,7.96 -5.83,7.25 -6.71,6.54 -7.40,5.64 -8.09,4.74 -8.54,3.71 -8.99,2.67 -9.18,1.56 -9.37,0.44 -9.37,0.44 L -9.37,0.44 Z"></path></g><g transform="translate(70.70189774911137 111.9573649515346) rotate(0 52.868792873286736 37.398663140478405)" stroke="none"><path fill="#f7f7f7" d="M 9.11,-5.09 Q 9.11,-5.09 10.90,-2.23 12.68,0.61 15.69,5.28 18.71,9.95 21.43,14.04 24.15,18.13 26.94,22.07 29.74,26.00 32.66,30.11 35.58,34.21 38.08,37.98 40.59,41.75 43.17,45.31 45.75,48.86 48.84,53.66 51.93,58.46 54.49,62.10 57.05,65.74 59.88,70.08 62.72,74.41 63.83,76.24 64.95,78.06 65.44,79.76 65.94,81.47 66.02,83.24 66.09,85.01 65.74,86.75 65.39,88.48 64.63,90.09 63.88,91.69 62.76,93.07 61.64,94.44 60.23,95.51 58.81,96.58 57.18,97.28 55.55,97.98 53.80,98.26 52.05,98.55 50.29,98.41 48.52,98.28 46.84,97.72 45.15,97.16 43.65,96.22 42.15,95.27 40.92,94.00 39.69,92.72 38.80,91.19 37.91,89.65 39.04,82.06 40.18,74.47 41.64,70.44 43.10,66.42 45.33,61.55 47.56,56.68 49.99,52.59 52.42,48.50 54.44,44.72 56.46,40.94 58.56,36.14 60.65,31.33 62.72,27.11 64.79,22.88 66.90,18.58 69.01,14.27 71.90,9.61 74.80,4.96 77.24,1.45 79.69,-2.04 82.29,-5.58 84.90,-9.12 88.75,-13.42 92.60,-17.71 94.52,-19.67 96.43,-21.62 98.64,-22.78 100.85,-23.95 103.31,-24.34 105.78,-24.74 108.24,-24.33 110.70,-23.92 112.91,-22.74 115.11,-21.57 116.82,-19.75 118.53,-17.93 119.57,-15.66 120.62,-13.39 120.88,-10.91 121.14,-8.43 120.60,-5.99 120.05,-3.55 118.76,-1.42 117.47,0.71 115.56,2.32 113.65,3.93 111.33,4.85 109.01,5.77 106.51,5.89 104.02,6.02 101.61,5.35 99.21,4.67 97.15,3.26 95.08,1.86 93.58,-0.13 92.07,-2.12 91.28,-4.49 90.49,-6.86 90.50,-9.35 90.51,-11.85 91.31,-14.21 92.12,-16.58 93.64,-18.56 95.15,-20.54 97.22,-21.94 99.30,-23.33 101.70,-24.00 104.11,-24.66 106.60,-24.51 109.10,-24.37 111.41,-23.44 113.73,-22.51 115.63,-20.88 117.53,-19.26 118.81,-17.12 120.09,-14.97 120.62,-12.53 121.15,-10.09 120.87,-7.61 120.59,-5.13 119.54,-2.87 118.48,-0.61 116.76,1.19 115.03,3.00 115.04,3.00 115.04,3.00 112.37,6.00 109.71,9.01 106.60,13.10 103.49,17.18 100.60,21.42 97.71,25.66 95.63,29.54 93.55,33.41 91.31,37.80 89.07,42.19 87.09,46.58 85.10,50.97 82.84,55.34 80.57,59.72 77.90,63.83 75.22,67.94 73.43,71.97 71.63,76.00 69.35,80.36 67.06,84.72 65.18,88.61 63.30,92.49 64.12,85.28 64.95,78.06 65.44,79.76 65.94,81.46 66.02,83.24 66.09,85.01 65.74,86.74 65.39,88.48 64.63,90.09 63.88,91.69 62.76,93.07 61.64,94.44 60.23,95.51 58.81,96.58 57.18,97.28 55.55,97.98 53.81,98.26 52.06,98.55 50.29,98.41 48.52,98.28 46.84,97.72 45.16,97.16 43.66,96.22 42.15,95.27 40.92,94.00 39.69,92.72 38.80,91.19 37.91,89.66 36.58,87.44 35.25,85.22 32.92,81.42 30.59,77.63 28.40,73.76 26.20,69.90 23.85,66.11 21.50,62.32 18.85,57.94 16.19,53.56 13.83,49.47 11.47,45.38 9.22,41.30 6.96,37.22 4.59,32.73 2.22,28.24 0.00,23.70 -2.21,19.17 -4.16,15.15 -6.11,11.12 -7.61,8.11 -9.11,5.09 -9.59,3.93 -10.07,2.76 -10.25,1.51 -10.44,0.27 -10.32,-0.97 -10.20,-2.23 -9.79,-3.42 -9.37,-4.61 -8.68,-5.66 -7.99,-6.72 -7.07,-7.57 -6.15,-8.43 -5.05,-9.05 -3.95,-9.66 -2.74,-10.00 -1.53,-10.33 -0.27,-10.36 0.98,-10.40 2.21,-10.13 3.44,-9.86 4.57,-9.30 5.70,-8.75 6.67,-7.94 7.63,-7.13 8.37,-6.11 9.12,-5.09 9.11,-5.09 L 9.11,-5.09 Z"></path></g></svg>